<?xml version="1.0" encoding="utf-8"?>
<!-- Generator: Adobe Illustrator 24.3.0, SVG Export Plug-In . SVG Version: 6.00 Build 0)  -->
<svg version="1.1" id="Layer_1" xmlns="http://www.w3.org/2000/svg" xmlns:xlink="http://www.w3.org/1999/xlink" x="0px" y="0px"
	 viewBox="0 0 180 180" enable-background="new 0 0 180 180" xml:space="preserve">
<g>
	<g id="XMLID_3127_">
		<path fill="#FFDB76" d="M154.622,89.999c0,35.69-28.934,64.623-64.623,64.623c-35.69,0-64.621-28.933-64.621-64.623
			c0-35.69,28.932-64.622,64.621-64.622C125.688,25.377,154.622,54.31,154.622,89.999z"/>
	</g>
	<g>
		<g>
			<g>
				<g>
					<path fill="#FFFFFF" d="M138.601,81.083c0,5.126-4.156,9.28-9.279,9.28c-5.127,0-9.281-4.154-9.281-9.28
						c0-5.125,4.154-9.28,9.281-9.28C134.444,71.803,138.601,75.957,138.601,81.083z"/>
				</g>
			</g>
			<g>
				<g>
					<path fill="#E5E5E5" d="M129.321,88.935c-0.879,0-1.738-0.145-2.561-0.428c-0.525-0.18-0.803-0.754-0.623-1.277
						c0.184-0.525,0.754-0.805,1.279-0.623c1.063,0.366,2.242,0.415,3.332,0.141c0.539-0.137,1.084,0.191,1.219,0.73
						c0.135,0.537-0.191,1.084-0.73,1.219C130.614,88.855,129.968,88.935,129.321,88.935z"/>
				</g>
			</g>
			<g>
				<g>
					<path fill="#E5E5E5" d="M133.944,87.135c-0.271,0-0.541-0.109-0.74-0.326c-0.375-0.409-0.348-1.044,0.061-1.42
						c1.205-1.104,1.896-2.673,1.896-4.306c0-0.555,0.449-1.005,1.004-1.005c0.555,0,1.006,0.45,1.006,1.005
						c0,2.194-0.928,4.304-2.547,5.788C134.431,87.048,134.188,87.135,133.944,87.135z"/>
				</g>
			</g>
		</g>
		<g>
			<g>
				<g>
					<path fill="#FFFFFF" d="M119.384,66.412c0,3.841-3.113,6.953-6.953,6.953c-3.842,0-6.955-3.112-6.955-6.953
						c0-3.84,3.113-6.953,6.955-6.953C116.271,59.459,119.384,62.572,119.384,66.412z"/>
				</g>
			</g>
			<g>
				<g>
					<path fill="#E5E5E5" d="M112.431,72.295c-0.658,0-1.303-0.108-1.918-0.32c-0.393-0.135-0.6-0.564-0.465-0.957
						c0.135-0.394,0.562-0.602,0.955-0.466c0.795,0.274,1.682,0.311,2.498,0.105c0.402-0.102,0.812,0.143,0.912,0.548
						c0.102,0.402-0.143,0.812-0.545,0.913C113.399,72.236,112.917,72.295,112.431,72.295z"/>
				</g>
			</g>
			<g>
				<g>
					<path fill="#E5E5E5" d="M115.896,70.947c-0.205,0-0.406-0.082-0.555-0.244c-0.283-0.306-0.262-0.783,0.045-1.064
						c0.902-0.827,1.42-2.003,1.42-3.227c0-0.416,0.338-0.753,0.754-0.753s0.752,0.336,0.752,0.753c0,1.645-0.695,3.225-1.908,4.337
						C116.261,70.882,116.077,70.947,115.896,70.947z"/>
				</g>
			</g>
		</g>
		<g>
			<g>
				<g>
					<path fill="#FFFFFF" d="M108.897,71.594c0,2.464-1.996,4.461-4.461,4.461c-2.463,0-4.459-1.997-4.459-4.461
						c0-2.463,1.996-4.462,4.459-4.462C106.901,67.133,108.897,69.131,108.897,71.594z"/>
				</g>
			</g>
			<g>
				<g>
					<path fill="#E5E5E5" d="M104.437,75.368c-0.42,0-0.834-0.068-1.228-0.205c-0.252-0.087-0.387-0.362-0.299-0.614
						c0.086-0.252,0.361-0.386,0.613-0.299c0.512,0.176,1.078,0.199,1.602,0.067c0.26-0.065,0.521,0.093,0.586,0.351
						c0.064,0.259-0.092,0.521-0.35,0.587C105.06,75.33,104.751,75.368,104.437,75.368z"/>
				</g>
			</g>
			<g>
				<g>
					<path fill="#E5E5E5" d="M106.661,74.503c-0.131,0-0.26-0.053-0.355-0.157c-0.182-0.197-0.168-0.502,0.029-0.682
						c0.578-0.532,0.91-1.287,0.91-2.07c0-0.267,0.215-0.483,0.482-0.483s0.482,0.216,0.482,0.483c0,1.054-0.445,2.068-1.223,2.782
						C106.894,74.461,106.778,74.503,106.661,74.503z"/>
				</g>
			</g>
		</g>
		<g>
			<g opacity="0.5">
				<g>
					<path fill="#FFFFFF" d="M93.087,50.719c0,0.717-0.582,1.298-1.299,1.298c-0.717,0-1.299-0.581-1.299-1.298
						c0-0.717,0.582-1.298,1.299-1.298C92.505,49.421,93.087,50.002,93.087,50.719z"/>
				</g>
			</g>
			<g>
				<g>
					<path fill="#E5E5E5" d="M91.788,51.818c-0.123,0-0.242-0.019-0.357-0.06c-0.074-0.025-0.113-0.105-0.088-0.178
						c0.025-0.074,0.105-0.112,0.18-0.087c0.148,0.05,0.312,0.058,0.467,0.02c0.074-0.02,0.15,0.027,0.17,0.102
						c0.018,0.075-0.027,0.151-0.102,0.171C91.968,51.807,91.878,51.818,91.788,51.818z"/>
				</g>
			</g>
			<g>
				<g>
					<path fill="#E5E5E5" d="M92.435,51.565c-0.037,0-0.076-0.015-0.101-0.045c-0.053-0.057-0.051-0.146,0.008-0.199
						c0.168-0.155,0.264-0.374,0.264-0.603c0-0.077,0.064-0.14,0.141-0.14c0.078,0,0.143,0.062,0.143,0.14
						c0,0.307-0.131,0.603-0.357,0.81C92.503,51.554,92.47,51.565,92.435,51.565z"/>
				</g>
			</g>
		</g>
		<g>
			<g opacity="0.5">
				<g>
					<path fill="#FFFFFF" d="M104.8,57.393c0,1.3-1.053,2.354-2.354,2.354c-1.299,0-2.354-1.054-2.354-2.354
						c0-1.299,1.055-2.353,2.354-2.353C103.747,55.04,104.8,56.094,104.8,57.393z"/>
				</g>
			</g>
			<g>
				<g>
					<path fill="#E5E5E5" d="M102.446,59.384c-0.221,0-0.441-0.037-0.648-0.108c-0.133-0.045-0.203-0.19-0.158-0.324
						c0.047-0.133,0.191-0.203,0.324-0.157c0.27,0.093,0.568,0.105,0.846,0.036c0.137-0.035,0.274,0.047,0.309,0.184
						c0.035,0.137-0.049,0.275-0.186,0.309C102.774,59.365,102.61,59.384,102.446,59.384z"/>
				</g>
			</g>
			<g>
				<g>
					<path fill="#E5E5E5" d="M103.62,58.928c-0.07,0-0.139-0.027-0.188-0.083c-0.098-0.103-0.09-0.264,0.016-0.36
						c0.305-0.279,0.48-0.678,0.48-1.092c0-0.141,0.113-0.255,0.254-0.255c0.141,0,0.254,0.114,0.254,0.255
						c0,0.557-0.234,1.092-0.645,1.468C103.743,58.906,103.681,58.928,103.62,58.928z"/>
				</g>
			</g>
		</g>
		<g>
			<g opacity="0.5">
				<g>
					<path fill="#FFFFFF" d="M94.239,64.059c0,2.071-1.68,3.749-3.75,3.749c-2.068,0-3.748-1.678-3.748-3.749
						c0-2.071,1.68-3.748,3.748-3.748C92.56,60.311,94.239,61.988,94.239,64.059z"/>
				</g>
			</g>
			<g>
				<g>
					<path fill="#E5E5E5" d="M90.489,67.23c-0.354,0-0.701-0.058-1.033-0.173c-0.211-0.073-0.324-0.305-0.252-0.516
						c0.074-0.212,0.305-0.325,0.516-0.252c0.43,0.148,0.906,0.168,1.348,0.057c0.219-0.055,0.438,0.078,0.492,0.294
						c0.055,0.217-0.078,0.439-0.295,0.493C91.013,67.198,90.753,67.23,90.489,67.23z"/>
				</g>
			</g>
			<g>
				<g>
					<path fill="#E5E5E5" d="M92.358,66.504c-0.111,0-0.221-0.044-0.299-0.132c-0.152-0.165-0.141-0.422,0.025-0.574
						c0.486-0.445,0.766-1.08,0.766-1.739c0-0.224,0.18-0.406,0.404-0.406c0.225,0,0.406,0.182,0.406,0.406
						c0,0.887-0.375,1.739-1.029,2.338C92.554,66.468,92.456,66.504,92.358,66.504z"/>
				</g>
			</g>
		</g>
		<g>
			<g opacity="0.5">
				<g>
					<path fill="#FFFFFF" d="M134.464,107.753c0,1.355-1.1,2.453-2.453,2.453c-1.357,0-2.455-1.098-2.455-2.453
						c0-1.355,1.098-2.455,2.455-2.455C133.364,105.298,134.464,106.398,134.464,107.753z"/>
				</g>
			</g>
			<g>
				<g>
					<path fill="#E5E5E5" d="M132.011,109.83c-0.232,0-0.461-0.037-0.678-0.113c-0.139-0.049-0.213-0.199-0.164-0.338
						c0.047-0.139,0.199-0.213,0.336-0.164c0.281,0.097,0.594,0.109,0.881,0.037c0.145-0.037,0.289,0.051,0.324,0.193
						c0.035,0.141-0.051,0.286-0.193,0.322C132.353,109.808,132.181,109.83,132.011,109.83z"/>
				</g>
			</g>
			<g>
				<g>
					<path fill="#E5E5E5" d="M133.233,109.353c-0.072,0-0.145-0.029-0.197-0.086c-0.1-0.107-0.092-0.277,0.016-0.375
						c0.32-0.293,0.502-0.707,0.502-1.139c0-0.148,0.119-0.267,0.268-0.267c0.146,0,0.264,0.118,0.264,0.267
						c0,0.58-0.244,1.139-0.672,1.53C133.36,109.331,133.298,109.353,133.233,109.353z"/>
				</g>
			</g>
		</g>
		<g>
			<g opacity="0.5">
				<g>
					<path fill="#FFFFFF" d="M138.118,93.494c0,1.957-1.588,3.545-3.545,3.545s-3.545-1.588-3.545-3.545
						c0-1.959,1.588-3.546,3.545-3.546S138.118,91.535,138.118,93.494z"/>
				</g>
			</g>
			<g>
				<g>
					<path fill="#E5E5E5" d="M134.573,96.492c-0.334,0-0.662-0.055-0.977-0.162c-0.201-0.069-0.307-0.288-0.238-0.488
						c0.068-0.201,0.287-0.307,0.488-0.238c0.406,0.141,0.855,0.159,1.273,0.055c0.205-0.053,0.414,0.072,0.465,0.277
						c0.053,0.207-0.074,0.415-0.279,0.467C135.067,96.461,134.821,96.492,134.573,96.492z"/>
				</g>
			</g>
			<g>
				<g>
					<path fill="#E5E5E5" d="M136.341,95.804c-0.104,0-0.207-0.041-0.283-0.123c-0.143-0.157-0.133-0.4,0.023-0.543
						c0.459-0.422,0.723-1.021,0.723-1.645c0-0.213,0.172-0.385,0.385-0.385c0.213,0,0.385,0.172,0.385,0.385
						c0,0.838-0.355,1.642-0.973,2.211C136.526,95.771,136.433,95.804,136.341,95.804z"/>
				</g>
			</g>
		</g>
		<g>
			<g opacity="0.5">
				<g>
					<path fill="#FFFFFF" d="M125.415,116.527c0,0.966-0.783,1.748-1.748,1.748c-0.967,0-1.748-0.782-1.748-1.748
						c0-0.965,0.781-1.748,1.748-1.748C124.632,114.779,125.415,115.562,125.415,116.527z"/>
				</g>
			</g>
			<g>
				<g>
					<path fill="#E5E5E5" d="M123.667,118.006c-0.166,0-0.328-0.027-0.482-0.081c-0.1-0.033-0.152-0.141-0.117-0.24
						c0.033-0.099,0.141-0.151,0.24-0.117c0.201,0.068,0.422,0.078,0.627,0.027c0.104-0.025,0.205,0.035,0.231,0.137
						c0.025,0.102-0.037,0.205-0.137,0.23C123.911,117.992,123.788,118.006,123.667,118.006z"/>
				</g>
			</g>
			<g>
				<g>
					<path fill="#E5E5E5" d="M124.538,117.667c-0.053,0-0.104-0.02-0.141-0.062c-0.07-0.077-0.064-0.198,0.012-0.269
						c0.227-0.207,0.357-0.503,0.357-0.811c0-0.105,0.086-0.189,0.19-0.189c0.103,0,0.189,0.084,0.189,0.189
						c0,0.414-0.176,0.811-0.48,1.092C124.63,117.651,124.583,117.667,124.538,117.667z"/>
				</g>
			</g>
		</g>
	</g>
	<g>
		<g>
			<g>
				<g>
					<path fill="#FFFFFF" d="M88.563,109.96c0,4.388-3.559,7.945-7.945,7.945c-4.391,0-7.947-3.558-7.947-7.945
						c0-4.389,3.557-7.945,7.947-7.945C85.005,102.015,88.563,105.572,88.563,109.96z"/>
				</g>
			</g>
			<g>
				<g>
					<path fill="#E5E5E5" d="M80.618,116.681c-0.75,0-1.488-0.121-2.191-0.364c-0.449-0.155-0.688-0.646-0.533-1.095
						c0.154-0.449,0.645-0.688,1.094-0.533c0.91,0.314,1.918,0.355,2.854,0.121c0.461-0.117,0.928,0.164,1.043,0.625
						c0.115,0.462-0.164,0.929-0.623,1.044C81.726,116.613,81.173,116.681,80.618,116.681z"/>
				</g>
			</g>
			<g>
				<g>
					<path fill="#E5E5E5" d="M84.577,115.142c-0.232,0-0.465-0.095-0.635-0.279c-0.32-0.35-0.299-0.895,0.053-1.216
						c1.031-0.944,1.621-2.288,1.621-3.687c0-0.475,0.387-0.86,0.861-0.86s0.861,0.386,0.861,0.86c0,1.879-0.795,3.686-2.182,4.955
						C84.993,115.068,84.784,115.142,84.577,115.142z"/>
				</g>
			</g>
		</g>
		<g>
			<g>
				<g>
					<path fill="#FFFFFF" d="M75.378,112.55c0,3.727-3.021,6.748-6.75,6.748c-3.727,0-6.748-3.021-6.748-6.748
						c0-3.728,3.022-6.748,6.748-6.748C72.356,105.802,75.378,108.823,75.378,112.55z"/>
				</g>
			</g>
			<g>
				<g>
					<path fill="#E5E5E5" d="M68.628,118.259c-0.637,0-1.262-0.105-1.859-0.311c-0.381-0.131-0.584-0.547-0.453-0.929
						c0.133-0.382,0.549-0.585,0.93-0.452c0.771,0.266,1.631,0.301,2.424,0.102c0.391-0.1,0.787,0.139,0.887,0.531
						c0.098,0.391-0.141,0.789-0.531,0.887C69.571,118.201,69.101,118.259,68.628,118.259z"/>
				</g>
			</g>
			<g>
				<g>
					<path fill="#E5E5E5" d="M71.993,116.951c-0.197,0-0.395-0.078-0.539-0.236c-0.273-0.297-0.254-0.76,0.045-1.033
						c0.875-0.803,1.379-1.944,1.379-3.131c0-0.403,0.326-0.731,0.73-0.731c0.402,0,0.731,0.328,0.731,0.731
						c0,1.596-0.676,3.13-1.852,4.209C72.347,116.888,72.169,116.951,71.993,116.951z"/>
				</g>
			</g>
		</g>
		<g>
			<g opacity="0.7">
				<g>
					<path fill="#FFFFFF" d="M62.927,119.71c0,2.588-2.098,4.686-4.686,4.686c-2.588,0-4.686-2.098-4.686-4.686
						s2.098-4.686,4.686-4.686C60.829,115.025,62.927,117.123,62.927,119.71z"/>
				</g>
			</g>
			<g>
				<g>
					<path fill="#E5E5E5" d="M58.241,123.674c-0.443,0-0.877-0.072-1.291-0.216c-0.266-0.092-0.406-0.381-0.314-0.645
						c0.09-0.265,0.379-0.406,0.644-0.314c0.537,0.186,1.133,0.209,1.682,0.07c0.273-0.069,0.547,0.098,0.615,0.369
						s-0.096,0.548-0.369,0.615C58.894,123.633,58.567,123.674,58.241,123.674z"/>
				</g>
			</g>
			<g>
				<g>
					<path fill="#E5E5E5" d="M60.577,122.766c-0.139,0-0.275-0.056-0.375-0.164c-0.189-0.208-0.176-0.528,0.031-0.718
						c0.607-0.557,0.957-1.35,0.957-2.174c0-0.281,0.227-0.508,0.508-0.508c0.279,0,0.506,0.227,0.506,0.508
						c0,1.107-0.469,2.172-1.285,2.922C60.821,122.722,60.698,122.766,60.577,122.766z"/>
				</g>
			</g>
		</g>
		<g>
			<g>
				<g>
					<path fill="#FFFFFF" d="M56.464,98.906c0,2.914-2.363,5.276-5.275,5.276c-2.912,0-5.275-2.362-5.275-5.276
						c0-2.913,2.363-5.275,5.275-5.275C54.101,93.63,56.464,95.993,56.464,98.906z"/>
				</g>
			</g>
			<g>
				<g>
					<path fill="#E5E5E5" d="M51.188,103.369c-0.498,0-0.988-0.081-1.453-0.241c-0.299-0.104-0.457-0.429-0.355-0.727
						c0.104-0.298,0.428-0.458,0.727-0.354c0.604,0.208,1.275,0.236,1.895,0.08c0.307-0.078,0.615,0.109,0.693,0.415
						c0.076,0.306-0.109,0.616-0.416,0.693C51.925,103.324,51.558,103.369,51.188,103.369z"/>
				</g>
			</g>
			<g>
				<g>
					<path fill="#E5E5E5" d="M53.817,102.347c-0.154,0-0.309-0.062-0.422-0.187c-0.213-0.233-0.197-0.593,0.035-0.806
						c0.686-0.628,1.08-1.52,1.08-2.449c0-0.314,0.254-0.57,0.568-0.57c0.316,0,0.572,0.256,0.572,0.57
						c0,1.248-0.527,2.447-1.447,3.291C54.093,102.297,53.956,102.347,53.817,102.347z"/>
				</g>
			</g>
		</g>
		<g>
			<g opacity="0.8">
				<g>
					<path fill="#FFFFFF" d="M50.853,106.175c0,2.008-1.627,3.635-3.635,3.635c-2.008,0-3.635-1.627-3.635-3.635
						c0-2.008,1.627-3.635,3.635-3.635C49.226,102.54,50.853,104.167,50.853,106.175z"/>
				</g>
			</g>
			<g>
				<g>
					<path fill="#E5E5E5" d="M47.218,109.251c-0.344,0-0.68-0.057-1.002-0.168c-0.205-0.07-0.314-0.295-0.244-0.5
						s0.295-0.314,0.502-0.244c0.414,0.145,0.877,0.162,1.305,0.055c0.209-0.053,0.424,0.076,0.477,0.286
						c0.053,0.212-0.074,0.425-0.285,0.478C47.726,109.22,47.472,109.251,47.218,109.251z"/>
				</g>
			</g>
			<g>
				<g>
					<path fill="#E5E5E5" d="M49.03,108.546c-0.107,0-0.213-0.043-0.291-0.128c-0.146-0.16-0.137-0.409,0.023-0.556
						c0.473-0.434,0.742-1.047,0.742-1.688c0-0.217,0.176-0.393,0.393-0.393c0.219,0,0.396,0.176,0.396,0.393
						c0,0.86-0.363,1.687-0.998,2.268C49.218,108.512,49.124,108.546,49.03,108.546z"/>
				</g>
			</g>
		</g>
		<g>
			<g opacity="0.5">
				<g>
					<path fill="#FFFFFF" d="M50.761,117.294c0,2.018-1.635,3.652-3.652,3.652c-2.018,0-3.652-1.635-3.652-3.652
						c0-2.016,1.635-3.651,3.652-3.651C49.126,113.643,50.761,115.279,50.761,117.294z"/>
				</g>
			</g>
			<g>
				<g>
					<path fill="#E5E5E5" d="M47.108,120.384c-0.346,0-0.683-0.056-1.006-0.168c-0.207-0.07-0.316-0.295-0.246-0.502
						c0.072-0.207,0.297-0.316,0.504-0.246c0.418,0.145,0.883,0.164,1.311,0.056c0.211-0.054,0.426,0.076,0.48,0.288
						c0.053,0.211-0.076,0.426-0.289,0.48C47.618,120.353,47.364,120.384,47.108,120.384z"/>
				</g>
			</g>
			<g>
				<g>
					<path fill="#E5E5E5" d="M48.929,119.677c-0.108,0-0.213-0.045-0.291-0.129c-0.148-0.161-0.137-0.412,0.023-0.559
						c0.475-0.434,0.744-1.053,0.744-1.695c0-0.219,0.178-0.396,0.396-0.396c0.219,0,0.396,0.177,0.396,0.396
						c0,0.863-0.365,1.694-1.002,2.278C49.12,119.642,49.024,119.677,48.929,119.677z"/>
				</g>
			</g>
		</g>
		<g>
			<g opacity="0.5">
				<g>
					<path fill="#FFFFFF" d="M42.235,91.39c0,1.1-0.891,1.992-1.99,1.992c-1.1,0-1.99-0.892-1.99-1.992c0-1.1,0.891-1.99,1.99-1.99
						C41.345,89.4,42.235,90.29,42.235,91.39z"/>
				</g>
			</g>
			<g>
				<g>
					<path fill="#E5E5E5" d="M40.245,93.074c-0.188,0-0.371-0.029-0.547-0.092c-0.113-0.037-0.174-0.16-0.135-0.273
						c0.039-0.112,0.162-0.172,0.275-0.133c0.227,0.078,0.479,0.089,0.713,0.029c0.115-0.029,0.232,0.042,0.264,0.157
						c0.027,0.115-0.043,0.232-0.158,0.262C40.522,93.058,40.386,93.074,40.245,93.074z"/>
				</g>
			</g>
			<g>
				<g>
					<path fill="#E5E5E5" d="M41.237,92.688c-0.057,0-0.115-0.023-0.158-0.069c-0.08-0.088-0.074-0.225,0.014-0.306
						c0.258-0.235,0.406-0.573,0.406-0.923c0-0.119,0.098-0.216,0.217-0.216c0.117,0,0.215,0.097,0.215,0.216
						c0,0.471-0.199,0.923-0.545,1.242C41.343,92.669,41.29,92.688,41.237,92.688z"/>
				</g>
			</g>
		</g>
		<g>
			<g opacity="0.5">
				<g>
					<path fill="#FFFFFF" d="M47.349,81.708c0,0.717-0.582,1.299-1.299,1.299c-0.717,0-1.299-0.582-1.299-1.299
						c0-0.716,0.582-1.298,1.299-1.298C46.767,80.41,47.349,80.992,47.349,81.708z"/>
				</g>
			</g>
			<g>
				<g>
					<path fill="#E5E5E5" d="M46.05,82.807c-0.123,0-0.244-0.02-0.359-0.06c-0.072-0.025-0.111-0.105-0.086-0.179
						c0.025-0.073,0.105-0.112,0.18-0.087c0.148,0.052,0.314,0.059,0.465,0.02c0.076-0.019,0.152,0.027,0.172,0.102
						c0.02,0.076-0.027,0.152-0.104,0.17C46.231,82.796,46.142,82.807,46.05,82.807z"/>
				</g>
			</g>
			<g>
				<g>
					<path fill="#E5E5E5" d="M46.696,82.555c-0.037,0-0.076-0.015-0.103-0.045c-0.053-0.057-0.049-0.146,0.008-0.199
						c0.17-0.155,0.268-0.374,0.268-0.603c0-0.078,0.062-0.141,0.141-0.141c0.076,0,0.139,0.063,0.139,0.141
						c0,0.308-0.129,0.602-0.355,0.81C46.765,82.542,46.731,82.555,46.696,82.555z"/>
				</g>
			</g>
		</g>
		<g>
			<g opacity="0.5">
				<g>
					<path fill="#FFFFFF" d="M43.208,100.341c0,1.299-1.055,2.354-2.354,2.354c-1.299,0-2.354-1.055-2.354-2.354
						c0-1.301,1.055-2.354,2.354-2.354C42.153,97.987,43.208,99.04,43.208,100.341z"/>
				</g>
			</g>
			<g>
				<g>
					<path fill="#E5E5E5" d="M40.854,102.332c-0.221,0-0.441-0.035-0.648-0.107c-0.133-0.047-0.205-0.191-0.158-0.324
						c0.045-0.133,0.191-0.204,0.324-0.158c0.269,0.093,0.568,0.105,0.844,0.037c0.137-0.036,0.277,0.049,0.31,0.184
						c0.033,0.137-0.049,0.275-0.185,0.311C41.183,102.312,41.019,102.332,40.854,102.332z"/>
				</g>
			</g>
			<g>
				<g>
					<path fill="#E5E5E5" d="M42.028,101.875c-0.07,0-0.139-0.028-0.19-0.083c-0.094-0.104-0.086-0.265,0.018-0.359
						c0.305-0.28,0.479-0.679,0.479-1.092c0-0.143,0.115-0.256,0.256-0.256c0.141,0,0.254,0.113,0.254,0.256
						c0,0.556-0.234,1.091-0.645,1.467C42.151,101.853,42.091,101.875,42.028,101.875z"/>
				</g>
			</g>
		</g>
		<g>
			<g opacity="0.5">
				<g>
					<path fill="#FFFFFF" d="M79.942,123.674c0,1.3-1.053,2.353-2.351,2.353c-1.301,0-2.355-1.053-2.355-2.353
						c0-1.3,1.055-2.354,2.355-2.354C78.89,121.32,79.942,122.374,79.942,123.674z"/>
				</g>
			</g>
			<g>
				<g>
					<path fill="#E5E5E5" d="M77.591,125.665c-0.223,0-0.44-0.036-0.649-0.107c-0.135-0.046-0.205-0.191-0.158-0.325
						c0.045-0.133,0.191-0.203,0.324-0.156c0.27,0.092,0.568,0.104,0.844,0.035c0.139-0.035,0.275,0.049,0.311,0.185
						c0.033,0.137-0.049,0.275-0.186,0.31C77.919,125.645,77.755,125.665,77.591,125.665z"/>
				</g>
			</g>
			<g>
				<g>
					<path fill="#E5E5E5" d="M78.763,125.208c-0.068,0-0.137-0.027-0.188-0.083c-0.094-0.103-0.088-0.265,0.018-0.36
						c0.303-0.279,0.48-0.678,0.48-1.091c0-0.142,0.113-0.255,0.254-0.255s0.256,0.113,0.256,0.255c0,0.556-0.236,1.091-0.649,1.468
						C78.888,125.187,78.825,125.208,78.763,125.208z"/>
				</g>
			</g>
		</g>
	</g>
	<g>
		<g>
			<path fill="#FF916E" d="M122.462,108.617H57.536c-1.268,0-2.303-1.037-2.303-2.304V73.687c0-1.268,1.035-2.305,2.303-2.305
				h64.926c1.268,0,2.305,1.037,2.305,2.305v32.626C124.767,107.58,123.729,108.617,122.462,108.617z"/>
		</g>
		<g opacity="0.2">
			<g>
				<path fill="#FF916E" d="M119.456,105.472h-58.91c-1.268,0-2.305-1.037-2.305-2.304V76.831c0-1.266,1.037-2.304,2.305-2.304
					h58.91c1.268,0,2.303,1.038,2.303,2.304v26.337C121.759,104.435,120.724,105.472,119.456,105.472z"/>
			</g>
		</g>
		<g opacity="0.2">
			<g>
				<path fill="#FF916E" d="M61.249,103.168V76.831c0-1.266,1.037-2.304,2.305-2.304h-3.008c-1.268,0-2.305,1.038-2.305,2.304
					v26.337c0,1.267,1.037,2.304,2.305,2.304h3.008C62.286,105.472,61.249,104.435,61.249,103.168z"/>
			</g>
		</g>
	</g>
	<g>
		<path fill="#FFFFFF" d="M104.782,82.555c0.098-0.297,0.166-0.674,0.189-1.146c0.043-0.832,0.066-1.398,0.066-1.701
			c0-0.291,0.037-0.497,0.102-0.618c0.074-0.123,0.184-0.213,0.336-0.273c0.143-0.062,0.484-0.093,1.014-0.093v-1.7h-0.377
			c-0.627,0-1.082,0.044-1.373,0.127c-0.426,0.128-0.752,0.304-0.977,0.521c-0.225,0.226-0.375,0.517-0.461,0.881
			c-0.086,0.364-0.129,1.001-0.129,1.924c0,0.564-0.018,0.959-0.059,1.191c-0.049,0.303-0.133,0.551-0.262,0.758
			c-0.127,0.2-0.279,0.34-0.455,0.43c-0.176,0.085-0.438,0.133-0.783,0.159v1.706c0.436,0.023,0.758,0.114,0.971,0.284
			c0.213,0.165,0.371,0.432,0.473,0.814c0.074,0.261,0.115,0.825,0.115,1.698c0,0.754,0.037,1.305,0.123,1.652
			c0.08,0.352,0.236,0.643,0.475,0.879c0.234,0.238,0.521,0.406,0.861,0.509c0.346,0.104,0.836,0.159,1.48,0.159h0.377v-1.713
			c-0.51,0-0.844-0.029-0.996-0.096c-0.152-0.066-0.268-0.159-0.346-0.287c-0.072-0.12-0.109-0.338-0.109-0.648
			c0-0.217-0.018-0.723-0.061-1.511c-0.025-0.521-0.09-0.935-0.184-1.244c-0.096-0.31-0.229-0.571-0.412-0.79
			c-0.176-0.213-0.406-0.4-0.686-0.564c0.314-0.206,0.551-0.4,0.709-0.594C104.558,83.082,104.687,82.847,104.782,82.555z"/>
		<path fill="#FFFFFF" d="M117.876,84.722v-1.706c-0.438-0.025-0.76-0.121-0.971-0.286c-0.213-0.163-0.371-0.437-0.48-0.813
			c-0.074-0.267-0.109-0.831-0.109-1.699c0-0.752-0.037-1.3-0.121-1.645c-0.086-0.353-0.244-0.649-0.475-0.887
			c-0.229-0.236-0.521-0.406-0.861-0.509c-0.346-0.097-0.838-0.153-1.473-0.153h-0.383v1.7c0.539,0,0.885,0.038,1.037,0.099
			c0.158,0.066,0.268,0.156,0.32,0.272c0.061,0.123,0.092,0.359,0.098,0.712c0.025,1.133,0.068,1.863,0.115,2.196
			c0.08,0.478,0.236,0.879,0.455,1.195c0.164,0.219,0.42,0.437,0.771,0.667c-0.274,0.152-0.492,0.335-0.668,0.547
			c-0.176,0.2-0.309,0.454-0.412,0.753c-0.104,0.297-0.172,0.69-0.193,1.183c-0.037,0.82-0.062,1.372-0.062,1.664
			c-0.006,0.291-0.043,0.498-0.115,0.619c-0.072,0.12-0.188,0.213-0.346,0.279c-0.158,0.061-0.49,0.09-1,0.09v1.713h0.383
			c0.617,0,1.078-0.043,1.363-0.128c0.432-0.128,0.766-0.304,0.99-0.522c0.225-0.219,0.377-0.516,0.455-0.879
			c0.084-0.371,0.127-1.015,0.127-1.932c0-0.564,0.02-0.959,0.062-1.182c0.047-0.305,0.139-0.56,0.266-0.761
			c0.121-0.199,0.273-0.345,0.449-0.43c0.176-0.085,0.43-0.14,0.783-0.157H117.876z"/>
		<g>
			<g>
				<rect x="106.847" y="80.94" fill="#FFFFFF" width="5.791" height="1.537"/>
			</g>
			<g>
				<rect x="106.847" y="83.101" fill="#FFFFFF" width="5.791" height="1.536"/>
			</g>
			<g>
				<rect x="106.847" y="85.26" fill="#FFFFFF" width="3.359" height="1.536"/>
			</g>
		</g>
	</g>
	<g>
		<g>
			<g>
				<polygon fill="#FFFFFF" points="81.333,101.882 93.433,89.782 93.37,89.718 89.759,89.718 77.595,101.882 				"/>
			</g>
		</g>
		<g>
			<g>
				<polygon fill="#FFFFFF" points="77.517,97.942 73.462,95.984 77.517,93.732 77.517,91.188 68.628,96.121 77.517,100.414 				"/>
			</g>
		</g>
		<g>
			<g>
				<polygon fill="#FFFFFF" points="95.106,97.942 99.161,95.984 95.106,93.732 95.106,91.188 103.995,96.121 95.106,100.414 				
					"/>
			</g>
		</g>
	</g>
	<g>
		<g>
			<g>
				<path fill="#FFFFFF" d="M65.515,108.617c0,4.406-3.572,7.978-7.979,7.978c-4.406,0-7.977-3.571-7.977-7.978
					c0-4.406,3.57-7.978,7.977-7.978C61.942,100.639,65.515,104.21,65.515,108.617z"/>
			</g>
		</g>
		<g>
			<g>
				<path fill="#E5E5E5" d="M57.536,115.365c-0.752,0-1.492-0.122-2.199-0.365c-0.449-0.156-0.689-0.647-0.535-1.099
					c0.156-0.452,0.648-0.69,1.1-0.535c0.912,0.316,1.928,0.357,2.863,0.121c0.463-0.117,0.932,0.164,1.049,0.627
					c0.115,0.464-0.166,0.933-0.627,1.048C58.649,115.296,58.095,115.365,57.536,115.365z"/>
			</g>
		</g>
		<g>
			<g>
				<path fill="#E5E5E5" d="M61.513,113.82c-0.234,0-0.467-0.094-0.637-0.281c-0.322-0.352-0.299-0.897,0.055-1.221
					c1.035-0.948,1.627-2.297,1.627-3.701c0-0.477,0.387-0.863,0.863-0.863c0.479,0,0.865,0.387,0.865,0.863
					c0,1.887-0.797,3.699-2.189,4.977C61.931,113.745,61.722,113.82,61.513,113.82z"/>
			</g>
		</g>
	</g>
	<g>
		<g>
			<path fill="#FFFFFF" d="M64.954,86.917h-0.611v-0.99h0.811l0.27-1.328h-1.08v-0.995h1.281l0.355-1.755h1.008l-0.355,1.755h0.996
				l0.346-1.755h1.045l-0.361,1.755h0.621V84.6h-0.822l-0.272,1.328h1.094v0.99h-1.295l-0.355,1.754h-1.004l0.346-1.754h-0.998
				l-0.355,1.754h-1.018L64.954,86.917z M66.435,84.6l-0.266,1.328h1l0.26-1.328H66.435z"/>
		</g>
	</g>
	<g>
		<g>
			<g>
				<g>
					<path fill="#FFFFFF" d="M132.712,68.937c0,4.388-3.559,7.944-7.945,7.944c-4.389,0-7.945-3.557-7.945-7.944
						c0-4.388,3.557-7.945,7.945-7.945C129.153,60.992,132.712,64.549,132.712,68.937z"/>
				</g>
			</g>
			<g>
				<g>
					<path fill="#E5E5E5" d="M124.767,75.659c-0.75,0-1.486-0.123-2.191-0.365c-0.447-0.156-0.688-0.645-0.531-1.094
						c0.154-0.449,0.645-0.688,1.094-0.533c0.908,0.313,1.92,0.355,2.852,0.121c0.461-0.117,0.928,0.164,1.043,0.625
						c0.117,0.461-0.162,0.929-0.623,1.045C125.876,75.591,125.323,75.659,124.767,75.659z"/>
				</g>
			</g>
			<g>
				<g>
					<path fill="#E5E5E5" d="M128.726,74.118c-0.232,0-0.465-0.094-0.633-0.278c-0.322-0.351-0.297-0.896,0.053-1.216
						c1.031-0.945,1.623-2.288,1.623-3.687c0-0.475,0.385-0.86,0.859-0.86c0.475,0,0.859,0.385,0.859,0.86
						c0,1.879-0.795,3.685-2.18,4.955C129.142,74.043,128.935,74.118,128.726,74.118z"/>
				</g>
			</g>
		</g>
		<g>
			<g>
				<g>
					<path fill="#FFFFFF" d="M130.29,93.63c0,2.713-2.199,4.912-4.912,4.912c-2.711,0-4.91-2.199-4.91-4.912s2.199-4.91,4.91-4.91
						C128.091,88.72,130.29,90.917,130.29,93.63z"/>
				</g>
			</g>
			<g>
				<g>
					<path fill="#E5E5E5" d="M125.378,97.785c-0.463,0-0.92-0.075-1.352-0.225c-0.279-0.096-0.426-0.398-0.33-0.677
						c0.096-0.278,0.397-0.425,0.676-0.329c0.561,0.193,1.186,0.219,1.764,0.074c0.283-0.073,0.572,0.102,0.645,0.387
						c0.07,0.285-0.104,0.573-0.387,0.645C126.063,97.744,125.722,97.785,125.378,97.785z"/>
				</g>
			</g>
			<g>
				<g>
					<path fill="#E5E5E5" d="M127.825,96.833c-0.143,0-0.287-0.058-0.393-0.174c-0.197-0.215-0.184-0.551,0.033-0.75
						c0.639-0.584,1.002-1.415,1.002-2.279c0-0.293,0.24-0.531,0.533-0.531c0.295,0,0.531,0.238,0.531,0.531
						c0,1.162-0.49,2.278-1.348,3.062C128.083,96.787,127.954,96.833,127.825,96.833z"/>
				</g>
			</g>
		</g>
	</g>
	<g id="XMLID_3034_">
		<g id="XMLID_3102_">
			<path fill="#FFFFFF" d="M69.62,64.436c-1.689,0-3.062-1.373-3.062-3.06c0,1.688-1.369,3.06-3.062,3.06
				c1.693,0,3.062,1.375,3.062,3.062C66.558,65.81,67.931,64.436,69.62,64.436z"/>
		</g>
		<g id="XMLID_3101_">
			<path fill="#FFFFFF" d="M73.118,67.318c-0.807,0-1.463-0.655-1.463-1.462c0,0.806-0.652,1.462-1.463,1.462
				c0.811,0,1.463,0.656,1.463,1.462C71.655,67.975,72.312,67.318,73.118,67.318z"/>
		</g>
		<g id="XMLID_3057_">
			<path fill="#FFFFFF" d="M69.735,55.486c-0.809,0-1.463-0.655-1.463-1.461c0,0.806-0.654,1.461-1.463,1.461
				c0.809,0,1.463,0.656,1.463,1.462C68.272,56.143,68.927,55.486,69.735,55.486z"/>
		</g>
	</g>
	<g id="XMLID_3031_">
		<g id="XMLID_3033_">
			<path fill="#FFFFFF" d="M105.472,114.515c-1.504,0-2.725-1.221-2.725-2.723c0,1.502-1.219,2.723-2.723,2.723
				c1.504,0,2.723,1.223,2.723,2.723C102.747,115.738,103.968,114.515,105.472,114.515z"/>
		</g>
		<g id="XMLID_3032_">
			<path fill="#FFFFFF" d="M108.583,117.078c-0.717,0-1.301-0.582-1.301-1.299c0,0.717-0.582,1.299-1.301,1.299
				c0.719,0,1.301,0.586,1.301,1.302C107.282,117.664,107.866,117.078,108.583,117.078z"/>
		</g>
	</g>
	<g id="XMLID_3028_">
		<g id="XMLID_3030_">
			<path fill="#FFFFFF" d="M93.909,128.546c-1.059,0-1.918-0.859-1.918-1.914c0,1.055-0.855,1.914-1.914,1.914
				c1.059,0,1.914,0.859,1.914,1.914C91.991,129.406,92.851,128.546,93.909,128.546z"/>
		</g>
		<g id="XMLID_3029_">
			<path fill="#FFFFFF" d="M96.095,130.349c-0.504,0-0.914-0.41-0.914-0.914c0,0.504-0.408,0.914-0.914,0.914
				c0.506,0,0.914,0.41,0.914,0.914C95.181,130.759,95.591,130.349,96.095,130.349z"/>
		</g>
	</g>
	<g>
		<g>
			<path fill="#FFFFFF" d="M85.101,83.787h-1.207l-0.48-1.249h-2.197l-0.453,1.249h-1.18l2.142-5.498h1.174L85.101,83.787z
				 M83.058,81.612l-0.758-2.04l-0.742,2.04H83.058z"/>
		</g>
		<g>
			<path fill="#FFFFFF" d="M85.636,83.787v-5.498h1.055v1.98c0.326-0.369,0.709-0.555,1.154-0.555c0.486,0,0.887,0.176,1.205,0.528
				c0.316,0.351,0.476,0.855,0.476,1.512c0,0.681-0.162,1.204-0.486,1.571c-0.324,0.368-0.717,0.551-1.18,0.551
				c-0.229,0-0.451-0.057-0.674-0.17c-0.221-0.114-0.41-0.282-0.57-0.505v0.585H85.636z M86.683,81.709
				c0,0.413,0.064,0.718,0.195,0.915c0.184,0.28,0.424,0.42,0.729,0.42c0.232,0,0.43-0.099,0.594-0.297
				c0.162-0.2,0.246-0.513,0.246-0.94c0-0.455-0.084-0.783-0.248-0.984c-0.166-0.202-0.377-0.302-0.635-0.302
				c-0.252,0-0.463,0.098-0.631,0.295C86.767,81.011,86.683,81.31,86.683,81.709z"/>
		</g>
		<g>
			<path fill="#FFFFFF" d="M93.845,80.981l-1.039,0.188c-0.035-0.207-0.113-0.364-0.236-0.469c-0.125-0.105-0.285-0.157-0.484-0.157
				c-0.262,0-0.471,0.091-0.627,0.272c-0.154,0.181-0.234,0.484-0.234,0.909c0,0.473,0.08,0.806,0.238,1.001
				c0.158,0.195,0.371,0.293,0.641,0.293c0.199,0,0.363-0.058,0.49-0.171c0.127-0.113,0.217-0.309,0.27-0.587l1.035,0.176
				c-0.107,0.476-0.312,0.835-0.617,1.076c-0.307,0.243-0.715,0.364-1.227,0.364c-0.582,0-1.049-0.184-1.395-0.551
				c-0.346-0.367-0.52-0.875-0.52-1.526c0-0.657,0.176-1.169,0.523-1.535c0.346-0.368,0.816-0.551,1.408-0.551
				c0.486,0,0.871,0.104,1.158,0.313C93.515,80.236,93.722,80.554,93.845,80.981z"/>
		</g>
	</g>
</g>
</svg>
